<svg xmlns="http://www.w3.org/2000/svg" viewBox="0 0 512 512" fill="none">
  <defs>
    <linearGradient id="harborGradient" x1="0%" y1="0%" x2="100%" y2="100%">
      <stop offset="0%" style="stop-color:#0EA5E9;stop-opacity:1" />
      <stop offset="50%" style="stop-color:#0284C7;stop-opacity:1" />
      <stop offset="100%" style="stop-color:#0369A1;stop-opacity:1" />
    </linearGradient>
    <linearGradient id="waveGradient" x1="0%" y1="0%" x2="100%" y2="0%">
      <stop offset="0%" style="stop-color:#38BDF8;stop-opacity:1" />
      <stop offset="100%" style="stop-color:#0EA5E9;stop-opacity:1" />
    </linearGradient>
  </defs>
  
  <!-- Background circle -->
  <circle cx="256" cy="256" r="240" fill="url(#harborGradient)"/>
  
  <!-- Anchor body - simplified modern design -->
  <g fill="#FFFFFF">
    <!-- Anchor ring at top -->
    <circle cx="256" cy="110" r="32" stroke="#FFFFFF" stroke-width="16" fill="none"/>
    
    <!-- Anchor vertical shaft -->
    <rect x="248" y="142" width="16" height="180" rx="8"/>
    
    <!-- Anchor crossbar -->
    <rect x="176" y="200" width="160" height="16" rx="8"/>
    
    <!-- Left anchor arm -->
    <path d="M180 216 L180 280 Q180 320 220 340 L220 324 Q196 308 196 280 L196 216 Z" />
    
    <!-- Right anchor arm -->
    <path d="M332 216 L332 280 Q332 320 292 340 L292 324 Q316 308 316 280 L316 216 Z" />
    
    <!-- Anchor point -->
    <path d="M256 322 L236 380 L256 400 L276 380 Z"/>
  </g>
  
  <!-- Stylized waves at bottom -->
  <g fill="url(#waveGradient)" opacity="0.9">
    <path d="M56 380 Q106 360, 156 380 Q206 400, 256 380 Q306 360, 356 380 Q406 400, 456 380 L456 420 Q406 400, 356 420 Q306 440, 256 420 Q206 400, 156 420 Q106 440, 56 420 Z"/>
  </g>
  
  <!-- Second wave layer -->
  <g fill="#FFFFFF" opacity="0.3">
    <path d="M56 410 Q106 390, 156 410 Q206 430, 256 410 Q306 390, 356 410 Q406 430, 456 410 L456 450 Q406 430, 356 450 Q306 470, 256 450 Q206 430, 156 450 Q106 470, 56 450 Z"/>
  </g>
</svg>

